<svg xmlns="http://www.w3.org/2000/svg" viewBox="0 0 900 1200" role="img" aria-labelledby="title desc">
  <title id="title">UNSAID Velvet extrait bottle</title>
  <desc id="desc">Black fragrance bottle with deep velvet textile folds.</desc>
  <defs>
    <linearGradient id="velvet" x1="0" x2="1" y1="0" y2="1"><stop offset="0" stop-color="#030000"/><stop offset="0.4" stop-color="#1a0909"/><stop offset="1" stop-color="#000"/></linearGradient>
    <linearGradient id="glass" x1="0" x2="1"><stop offset="0" stop-color="#020202"/><stop offset="0.22" stop-color="#3a1d1d"/><stop offset="0.5" stop-color="#050303"/><stop offset="0.78" stop-color="#8b6761"/><stop offset="1" stop-color="#020202"/></linearGradient>
  </defs>
  <rect width="900" height="1200" fill="url(#velvet)"/>
  <path d="M120 1030c120-260 120-540 0-840M780 1030c-120-260-120-540 0-840" fill="none" stroke="#d8c5b8" stroke-opacity="0.08" stroke-width="70"/>
  <path d="M348 222h204v116H348z" fill="#040202" stroke="#c2aaa0" stroke-width="3"/>
  <path d="M306 332h288v642c0 57-46 103-103 103h-82c-57 0-103-46-103-103V332z" fill="url(#glass)" stroke="#c2aaa0" stroke-width="4"/>
  <path d="M342 382h44v540c0 72 25 108 62 128" fill="none" stroke="#ffe5d7" stroke-opacity="0.12" stroke-width="8"/>
  <rect x="352" y="604" width="196" height="212" fill="#040202" stroke="#d8c5b8" stroke-width="2"/>
  <text x="450" y="684" fill="#fff0e8" font-family="Arial, Helvetica, sans-serif" font-size="34" font-weight="700" text-anchor="middle" letter-spacing="14">UNSAID</text>
  <text x="450" y="735" fill="#c9aaa0" font-family="Arial, Helvetica, sans-serif" font-size="20" text-anchor="middle" letter-spacing="8">VELVET</text>
  <text x="450" y="774" fill="#8e7771" font-family="Arial, Helvetica, sans-serif" font-size="13" text-anchor="middle" letter-spacing="5">EXTRAIT 30ML</text>
</svg>
