<svg xmlns="http://www.w3.org/2000/svg" viewBox="0 0 900 1200" role="img" aria-labelledby="title desc">
  <title id="title">UNSAID Apex extrait bottle</title>
  <desc id="desc">Black glass fragrance bottle with severe luxury editorial lighting.</desc>
  <defs>
    <linearGradient id="bg" x1="0" x2="1" y1="0" y2="1">
      <stop offset="0" stop-color="#050505"/>
      <stop offset="0.5" stop-color="#16130f"/>
      <stop offset="1" stop-color="#000000"/>
    </linearGradient>
    <linearGradient id="glass" x1="0" x2="1">
      <stop offset="0" stop-color="#050505"/>
      <stop offset="0.22" stop-color="#2b261d"/>
      <stop offset="0.5" stop-color="#070707"/>
      <stop offset="0.76" stop-color="#50422c"/>
      <stop offset="1" stop-color="#050505"/>
    </linearGradient>
    <radialGradient id="halo" cx="50%" cy="44%" r="45%">
      <stop offset="0" stop-color="#b99a5f" stop-opacity="0.28"/>
      <stop offset="0.5" stop-color="#5c4b31" stop-opacity="0.12"/>
      <stop offset="1" stop-color="#000000" stop-opacity="0"/>
    </radialGradient>
  </defs>
  <rect width="900" height="1200" fill="url(#bg)"/>
  <rect x="88" y="108" width="724" height="984" fill="none" stroke="#2a261f" stroke-width="2"/>
  <circle cx="450" cy="500" r="380" fill="url(#halo)"/>
  <path d="M350 224h200v116H350z" fill="#050505" stroke="#7f6943" stroke-width="3"/>
  <path d="M310 330h280v640c0 52-42 94-94 94h-92c-52 0-94-42-94-94V330z" fill="url(#glass)" stroke="#8f764c" stroke-width="4"/>
  <path d="M338 360h42v560c0 64 22 96 50 112" fill="none" stroke="#d5bf8a" stroke-opacity="0.18" stroke-width="8"/>
  <path d="M548 360h26v520c0 74-28 122-76 146" fill="none" stroke="#f4e1b0" stroke-opacity="0.12" stroke-width="5"/>
  <rect x="356" y="598" width="188" height="210" fill="#050505" stroke="#d7c58f" stroke-width="2"/>
  <text x="450" y="682" fill="#efe6d1" font-family="Arial, Helvetica, sans-serif" font-size="34" font-weight="700" text-anchor="middle" letter-spacing="14">UNSAID</text>
  <text x="450" y="733" fill="#9f8a65" font-family="Arial, Helvetica, sans-serif" font-size="20" text-anchor="middle" letter-spacing="8">APEX</text>
  <text x="450" y="772" fill="#7e755f" font-family="Arial, Helvetica, sans-serif" font-size="13" text-anchor="middle" letter-spacing="5">EXTRAIT 30ML</text>
</svg>
