<svg xmlns="http://www.w3.org/2000/svg" viewBox="0 0 900 1200" role="img" aria-labelledby="title desc">
  <title id="title">UNSAID Echo extrait bottle</title>
  <desc id="desc">Dark smoked fragrance bottle with shadowed editorial atmosphere.</desc>
  <defs>
    <linearGradient id="smoke" x1="0" x2="1" y1="0" y2="1"><stop offset="0" stop-color="#000"/><stop offset="0.55" stop-color="#161616"/><stop offset="1" stop-color="#050303"/></linearGradient>
    <linearGradient id="glass" x1="0" x2="1"><stop offset="0" stop-color="#020202"/><stop offset="0.26" stop-color="#262220"/><stop offset="0.52" stop-color="#030303"/><stop offset="0.78" stop-color="#5a5550"/><stop offset="1" stop-color="#020202"/></linearGradient>
  </defs>
  <rect width="900" height="1200" fill="url(#smoke)"/>
  <path d="M176 760c116-110 260-112 432-6 72 44 126 42 168-6" fill="none" stroke="#e7e2d8" stroke-opacity="0.08" stroke-width="38"/>
  <path d="M126 440c148-98 310-91 486 20 54 34 102 31 144-8" fill="none" stroke="#e7e2d8" stroke-opacity="0.06" stroke-width="26"/>
  <path d="M350 224h200v116H350z" fill="#030303" stroke="#89817b" stroke-width="3"/>
  <path d="M308 332h284v640c0 58-47 105-105 105h-74c-58 0-105-47-105-105V332z" fill="url(#glass)" stroke="#89817b" stroke-width="4"/>
  <rect x="354" y="604" width="192" height="212" fill="#030303" stroke="#b4aca3" stroke-width="2"/>
  <text x="450" y="684" fill="#e8e0d8" font-family="Arial, Helvetica, sans-serif" font-size="34" font-weight="700" text-anchor="middle" letter-spacing="14">UNSAID</text>
  <text x="450" y="735" fill="#aaa199" font-family="Arial, Helvetica, sans-serif" font-size="20" text-anchor="middle" letter-spacing="8">ECHO</text>
  <text x="450" y="774" fill="#77706b" font-family="Arial, Helvetica, sans-serif" font-size="13" text-anchor="middle" letter-spacing="5">EXTRAIT 30ML</text>
</svg>
