<svg xmlns="http://www.w3.org/2000/svg" viewBox="0 0 900 1200" role="img" aria-labelledby="title desc">
  <title id="title">UNSAID Chapter I extrait bottle</title>
  <desc id="desc">Black perfume bottle over ivory editorial paper textures.</desc>
  <defs>
    <linearGradient id="bg" x1="0" x2="1" y1="0" y2="1"><stop offset="0" stop-color="#0b0b0a"/><stop offset="0.46" stop-color="#201f1b"/><stop offset="1" stop-color="#000"/></linearGradient>
    <linearGradient id="glass" x1="0" x2="1"><stop offset="0" stop-color="#020202"/><stop offset="0.25" stop-color="#34322c"/><stop offset="0.52" stop-color="#050505"/><stop offset="0.82" stop-color="#6b6656"/><stop offset="1" stop-color="#020202"/></linearGradient>
  </defs>
  <rect width="900" height="1200" fill="url(#bg)"/>
  <path d="M140 190h540v830H140z" fill="#e7e2d8" opacity="0.05"/>
  <path d="M240 155h500v885H240z" fill="none" stroke="#e7e2d8" stroke-opacity="0.14" stroke-width="2"/>
  <path d="M346 218h208v118H346z" fill="#060606" stroke="#c9c0aa" stroke-width="3"/>
  <path d="M304 330h292v642c0 58-47 105-105 105h-82c-58 0-105-47-105-105V330z" fill="url(#glass)" stroke="#c9c0aa" stroke-opacity="0.82" stroke-width="4"/>
  <path d="M344 372h44v548c0 68 26 106 58 124" fill="none" stroke="#ffffff" stroke-opacity="0.13" stroke-width="8"/>
  <rect x="352" y="604" width="196" height="214" fill="#060606" stroke="#d6d0c1" stroke-width="2"/>
  <text x="450" y="684" fill="#f4f1ea" font-family="Arial, Helvetica, sans-serif" font-size="33" font-weight="700" text-anchor="middle" letter-spacing="14">UNSAID</text>
  <text x="450" y="735" fill="#b7ad95" font-family="Arial, Helvetica, sans-serif" font-size="18" text-anchor="middle" letter-spacing="7">CHAPTER I</text>
  <text x="450" y="774" fill="#827b6b" font-family="Arial, Helvetica, sans-serif" font-size="13" text-anchor="middle" letter-spacing="5">EXTRAIT 30ML</text>
</svg>
