<svg xmlns="http://www.w3.org/2000/svg" viewBox="0 0 900 1200" role="img" aria-labelledby="title desc">
  <title id="title">UNSAID Pulse extrait bottle</title>
  <desc id="desc">Dimensional black glass luxury perfume bottle with mineral green accents.</desc>
  <defs>
    <linearGradient id="glass" x1="0" x2="1"><stop offset="0" stop-color="#020303"/><stop offset="0.14" stop-color="#11201e"/><stop offset="0.36" stop-color="#030606"/><stop offset="0.58" stop-color="#000"/><stop offset="0.82" stop-color="#4f6960"/><stop offset="1" stop-color="#020303"/></linearGradient>
    <linearGradient id="edge" x1="0" x2="1"><stop offset="0" stop-color="#dff7ec" stop-opacity="0.13"/><stop offset="0.52" stop-color="#fff" stop-opacity="0.04"/><stop offset="1" stop-color="#88a99c" stop-opacity="0.24"/></linearGradient>
    <linearGradient id="cap" x1="0" x2="1"><stop offset="0" stop-color="#030505"/><stop offset="0.27" stop-color="#314941"/><stop offset="0.54" stop-color="#050707"/><stop offset="0.82" stop-color="#bcd5ca"/><stop offset="1" stop-color="#030505"/></linearGradient>
    <radialGradient id="shine" cx="50%" cy="42%" r="48%"><stop offset="0" stop-color="#dff7ec" stop-opacity="0.22"/><stop offset="0.5" stop-color="#88a99c" stop-opacity="0.08"/><stop offset="1" stop-color="#000" stop-opacity="0"/></radialGradient>
    <filter id="softShadow" x="-30%" y="-30%" width="160%" height="170%"><feDropShadow dx="0" dy="34" stdDeviation="26" flood-color="#000" flood-opacity="0.55"/></filter>
    <filter id="blur"><feGaussianBlur stdDeviation="9"/></filter>
  </defs>
  <ellipse cx="450" cy="1080" rx="210" ry="46" fill="#000" opacity="0.34" filter="url(#blur)"/>
  <circle cx="450" cy="560" r="360" fill="url(#shine)"/>
  <g filter="url(#softShadow)">
    <rect x="383" y="124" width="134" height="44" rx="8" fill="#030505" stroke="#9bb9ad" stroke-opacity="0.50" stroke-width="2"/>
    <rect x="350" y="165" width="200" height="118" rx="10" fill="url(#cap)" stroke="#9bb9ad" stroke-opacity="0.62" stroke-width="3"/>
    <rect x="372" y="188" width="156" height="18" rx="4" fill="#e7fff2" opacity="0.10"/>
    <path d="M330 284h240c27 0 50 23 50 50v602c0 82-66 148-148 148h-44c-82 0-148-66-148-148V334c0-27 23-50 50-50z" fill="url(#glass)" stroke="#9bb9ad" stroke-opacity="0.64" stroke-width="5"/>
    <path d="M313 356c16-30 34-48 58-58h158c30 8 50 28 58 60" fill="none" stroke="#dff7ec" stroke-opacity="0.16" stroke-width="5"/>
    <path d="M330 330v604c0 54 44 98 98 98h44c54 0 98-44 98-98V330" fill="url(#edge)" opacity="0.9"/>
    <path d="M356 350h38v520c0 82 28 133 78 160" fill="none" stroke="#e7fff2" stroke-opacity="0.15" stroke-width="11" stroke-linecap="round"/>
    <path d="M545 360h18v470c0 95-30 158-86 190" fill="none" stroke="#e7fff2" stroke-opacity="0.10" stroke-width="6" stroke-linecap="round"/>
    <rect x="332" y="926" width="236" height="80" rx="20" fill="#050707" opacity="0.72"/>
    <rect x="348" y="574" width="204" height="272" rx="4" fill="#030505" stroke="#b8d0c5" stroke-opacity="0.78" stroke-width="3"/>
    <rect x="366" y="594" width="168" height="232" rx="2" fill="none" stroke="#e7fff2" stroke-opacity="0.08" stroke-width="2"/>
    <text x="450" y="674" fill="#eef7ef" font-family="Arial, Helvetica, sans-serif" font-size="35" font-weight="700" text-anchor="middle" letter-spacing="13">UNSAID</text>
    <text x="450" y="731" fill="#a7c0b5" font-family="Arial, Helvetica, sans-serif" font-size="21" text-anchor="middle" letter-spacing="8">PULSE</text>
    <text x="450" y="779" fill="#73867e" font-family="Arial, Helvetica, sans-serif" font-size="13" text-anchor="middle" letter-spacing="5">EXTRAIT 30ML</text>
  </g>
</svg>
